# xmcd
#
# Track frame offsets: 
#        150
#        12430
#        22775
#        34197
#        46472
#        57237
#        68607
#        79800
#        95035
#        105757
#        116012
#        129565
#        138415
#        154102
#        170000
#        180277
#        191635
#        204500
#        214455
#        229122
#        239565
#
# Disc length: 3325 seconds
#
# Revision: 4
# Processed by: cddbd v1.5.2PL0 Copyright (c) Steve Scherf et al.
# Submitted via: ExactAudioCopy v0.99pb4
#
DISCID=200cfb15
DTITLE=The Rat Pack - Christmas with the Rat Pack
DYEAR=2002
DGENRE=Easy Listening
TTITLE0=Dean Martin - I've Got My Love to Keep Me Warm
TTITLE1=Frank Sinatra - Mistletoe and Holly
TTITLE2=Sammy Davis, Jr. - Christmas Time All Over the World
TTITLE3=Frank Sinatra - The First Noel
TTITLE4=Dean Martin - Baby, it's Cold Outside
TTITLE5=Frank Sinatra - I Believe
TTITLE6=Dean Martin - Silver Bells
TTITLE7=Sammy Davis, Jr. - The Christmas Song
TTITLE8=Frank Sinatra - Hark! the Herald Angels Sing
TTITLE9=Dean Martin - Rudolph, the Red-Nosed Reindeer
TTITLE10=Frank Sinatra - The Christmas Waltz
TTITLE11=Dean Martin - Let it Snow! Let it Snow! Let it Snow!
TTITLE12=Frank Sinatra - Have Yourself a Merry Little Christmas
TTITLE13=Dean Martin - Peace on Earth - Silent Night
TTITLE14=Sammy Davis, Jr. - Jingle Bells
TTITLE15=Dean Martin - White Christmas
TTITLE16=Frank Sinatra - It Came upon a Midnight Clear
TTITLE17=Dean Martin - Winter Wonderland
TTITLE18=Frank Sinatra - I'll Be Home for Christmas (if Only in My Dre
TTITLE18=ams)
TTITLE19=Frank Sinatra and Dean Martin - A Marshmallow World [live]
TTITLE20=Frank Sinatra and Dean Martin - Auld Lang Syne [live]
EXTD=YEAR: 2002
EXTT0=
EXTT1=
EXTT2=
EXTT3=
EXTT4=
EXTT5=
EXTT6=
EXTT7=
EXTT8=
EXTT9=
EXTT10=
EXTT11=
EXTT12=
EXTT13=
EXTT14=
EXTT15=
EXTT16=
EXTT17=
EXTT18=
EXTT19=
EXTT20=
PLAYORDER=
